{
    "asset" : {
        "generator" : "Khronos glTF Blender I/O v1.2.75",
        "version" : "2.0"
    },
    "scene" : 0,
    "scenes" : [
        {
            "name" : "Scene",
            "nodes" : [
                0
            ]
        }
    ],
    "nodes" : [
        {
            "mesh" : 0,
            "name" : "Saturn Rings_Material #63_0",
            "rotation" : [
                -0.7071068286895752,
                0,
                0,
                0.7071068286895752
            ],
            "translation" : [
                0.012418746948242188,
                0.01957225799560547,
                3.1508259773254395
            ]
        }
    ],
    "materials" : [
        {
            "alphaMode" : "BLEND",
            "doubleSided" : true,
            "emissiveFactor" : [
                0.15800531208515167,
                0.15800531208515167,
                0.15800531208515167
            ],
            "name" : "Material_63.001",
            "pbrMetallicRoughness" : {
                "baseColorTexture" : {
                    "index" : 0,
                    "texCoord" : 0
                },
                "metallicFactor" : 0,
                "roughnessFactor" : 0.07439395040273666
            }
        },
        {
            "emissiveFactor" : [
                0,
                0,
                0
            ],
            "name" : "Material_50.001",
            "pbrMetallicRoughness" : {
                "baseColorTexture" : {
                    "index" : 1,
                    "texCoord" : 0
                },
                "metallicFactor" : 0,
                "roughnessFactor" : 0.6865151524543762
            }
        }
    ],
    "meshes" : [
        {
            "name" : "Saturn Rings_Material #63_0.001",
            "primitives" : [
                {
                    "attributes" : {
                        "POSITION" : 0,
                        "NORMAL" : 1,
                        "TEXCOORD_0" : 2
                    },
                    "indices" : 3,
                    "material" : 0
                },
                {
                    "attributes" : {
                        "POSITION" : 4,
                        "NORMAL" : 5,
                        "TEXCOORD_0" : 6
                    },
                    "indices" : 7,
                    "material" : 1
                }
            ]
        }
    ],
    "textures" : [
        {
            "source" : 0
        },
        {
            "source" : 1
        }
    ],
    "images" : [
        {
            "bufferView" : 4,
            "mimeType" : "image/png",
            "name" : "Material_63_baseColor"
        },
        {
            "bufferView" : 9,
            "mimeType" : "image/jpeg",
            "name" : "Material_50_baseColor"
        }
    ],
    "accessors" : [
        {
            "bufferView" : 0,
            "componentType" : 5126,
            "count" : 328,
            "max" : [
                11.20442008972168,
                11.20442008972168,
                0
            ],
            "min" : [
                -11.20442008972168,
                -11.20442008972168,
                0
            ],
            "type" : "VEC3"
        },
        {
            "bufferView" : 1,
            "componentType" : 5126,
            "count" : 328,
            "type" : "VEC3"
        },
        {
            "bufferView" : 2,
            "componentType" : 5126,
            "count" : 328,
            "type" : "VEC2"
        },
        {
            "bufferView" : 3,
            "componentType" : 5123,
            "count" : 792,
            "type" : "SCALAR"
        },
        {
            "bufferView" : 5,
            "componentType" : 5126,
            "count" : 2143,
            "max" : [
                5.000002861022949,
                5.000000953674316,
                5
            ],
            "min" : [
                -4.999999046325684,
                -4.999999046325684,
                -5
            ],
            "type" : "VEC3"
        },
        {
            "bufferView" : 6,
            "componentType" : 5126,
            "count" : 2143,
            "type" : "VEC3"
        },
        {
            "bufferView" : 7,
            "componentType" : 5126,
            "count" : 2143,
            "type" : "VEC2"
        },
        {
            "bufferView" : 8,
            "componentType" : 5123,
            "count" : 11904,
            "type" : "SCALAR"
        }
    ],
    "bufferViews" : [
        {
            "buffer" : 0,
            "byteLength" : 3936,
            "byteOffset" : 0
        },
        {
            "buffer" : 0,
            "byteLength" : 3936,
            "byteOffset" : 3936
        },
        {
            "buffer" : 0,
            "byteLength" : 2624,
            "byteOffset" : 7872
        },
        {
            "buffer" : 0,
            "byteLength" : 1584,
            "byteOffset" : 10496
        },
        {
            "buffer" : 0,
            "byteLength" : 36457,
            "byteOffset" : 12080
        },
        {
            "buffer" : 0,
            "byteLength" : 25716,
            "byteOffset" : 48540
        },
        {
            "buffer" : 0,
            "byteLength" : 25716,
            "byteOffset" : 74256
        },
        {
            "buffer" : 0,
            "byteLength" : 17144,
            "byteOffset" : 99972
        },
        {
            "buffer" : 0,
            "byteLength" : 23808,
            "byteOffset" : 117116
        },
        {
            "buffer" : 0,
            "byteLength" : 1402611,
            "byteOffset" : 140924
        }
    ],
    "buffers" : [
        {
            "byteLength" : 1543536,
            "uri" : "data:application/octet-stream;base64,"
        }
    ]
}
