{
    "asset" : {
        "generator" : "Khronos glTF Blender I/O v1.2.75",
        "version" : "2.0"
    },
    "scene" : 0,
    "scenes" : [
        {
            "name" : "Scene",
            "nodes" : [
                0
            ]
        }
    ],
    "nodes" : [
        {
            "mesh" : 0,
            "name" : "Uranus",
            "scale" : [
                0.14794591069221497,
                0.14794594049453735,
                0.14794594049453735
            ]
        }
    ],
    "materials" : [
        {
            "doubleSided" : true,
            "emissiveFactor" : [
                0,
                0,
                0
            ],
            "name" : "Planet",
            "pbrMetallicRoughness" : {
                "baseColorTexture" : {
                    "index" : 0,
                    "texCoord" : 0
                },
                "metallicFactor" : 0,
                "roughnessFactor" : 0.7852760553359985
            }
        }
    ],
    "meshes" : [
        {
            "name" : "Earth_Planet_0",
            "primitives" : [
                {
                    "attributes" : {
                        "POSITION" : 0,
                        "NORMAL" : 1,
                        "TEXCOORD_0" : 2,
                        "TEXCOORD_1" : 3,
                        "TEXCOORD_2" : 4
                    },
                    "indices" : 5,
                    "material" : 0
                }
            ]
        }
    ],
    "textures" : [
        {
            "source" : 0
        }
    ],
    "images" : [
        {
            "bufferView" : 6,
            "mimeType" : "image/jpeg",
            "name" : "Planet_baseColor"
        }
    ],
    "accessors" : [
        {
            "bufferView" : 0,
            "componentType" : 5126,
            "count" : 16639,
            "max" : [
                50,
                50,
                50
            ],
            "min" : [
                -50,
                -50,
                -50
            ],
            "type" : "VEC3"
        },
        {
            "bufferView" : 1,
            "componentType" : 5126,
            "count" : 16639,
            "type" : "VEC3"
        },
        {
            "bufferView" : 2,
            "componentType" : 5126,
            "count" : 16639,
            "type" : "VEC2"
        },
        {
            "bufferView" : 3,
            "componentType" : 5126,
            "count" : 16639,
            "type" : "VEC2"
        },
        {
            "bufferView" : 4,
            "componentType" : 5126,
            "count" : 16639,
            "type" : "VEC2"
        },
        {
            "bufferView" : 5,
            "componentType" : 5123,
            "count" : 97536,
            "type" : "SCALAR"
        }
    ],
    "bufferViews" : [
        {
            "buffer" : 0,
            "byteLength" : 199668,
            "byteOffset" : 0
        },
        {
            "buffer" : 0,
            "byteLength" : 199668,
            "byteOffset" : 199668
        },
        {
            "buffer" : 0,
            "byteLength" : 133112,
            "byteOffset" : 399336
        },
        {
            "buffer" : 0,
            "byteLength" : 133112,
            "byteOffset" : 532448
        },
        {
            "buffer" : 0,
            "byteLength" : 133112,
            "byteOffset" : 665560
        },
        {
            "buffer" : 0,
            "byteLength" : 195072,
            "byteOffset" : 798672
        },
        {
            "buffer" : 0,
            "byteLength" : 104120,
            "byteOffset" : 993744
        }
    ],
    "buffers" : [
        {
            "byteLength" : 1097864,
            "uri" : "data:application/octet-stream;base64,"
        }
    ]
}
