{
    "asset" : {
        "generator" : "Khronos glTF Blender I/O v1.2.75",
        "version" : "2.0"
    },
    "scene" : 0,
    "scenes" : [
        {
            "name" : "Scene",
            "nodes" : [
                0
            ]
        }
    ],
    "nodes" : [
        {
            "mesh" : 0,
            "name" : "Sphere.001",
            "rotation" : [
                -0.6324426531791687,
                0.11989765614271164,
                -0.14254039525985718,
                0.7518797516822815
            ],
            "scale" : [
                3.94561767578125,
                3.945617914199829,
                3.945617914199829
            ],
            "translation" : [
                -0.01473077293485403,
                -0.013568194583058357,
                -0.005566930398344994
            ]
        }
    ],
    "materials" : [
        {
            "doubleSided" : true,
            "emissiveFactor" : [
                1,
                1,
                1
            ],
            "emissiveTexture" : {
                "index" : 0,
                "texCoord" : 0
            },
            "name" : "jupiter.001",
            "pbrMetallicRoughness" : {}
        }
    ],
    "meshes" : [
        {
            "name" : "Sphere.002",
            "primitives" : [
                {
                    "attributes" : {
                        "POSITION" : 0,
                        "NORMAL" : 1,
                        "TEXCOORD_0" : 2
                    },
                    "indices" : 3,
                    "material" : 0
                }
            ]
        }
    ],
    "textures" : [
        {
            "source" : 0
        }
    ],
    "images" : [
        {
            "bufferView" : 4,
            "mimeType" : "image/jpeg",
            "name" : "jupiter_diffuse"
        }
    ],
    "accessors" : [
        {
            "bufferView" : 0,
            "componentType" : 5126,
            "count" : 2052,
            "max" : [
                1.0087426900863647,
                0.9976015090942383,
                1.0187054872512817
            ],
            "min" : [
                -0.99125736951828,
                -1.0023984909057617,
                -0.9812945127487183
            ],
            "type" : "VEC3"
        },
        {
            "bufferView" : 1,
            "componentType" : 5126,
            "count" : 2052,
            "type" : "VEC3"
        },
        {
            "bufferView" : 2,
            "componentType" : 5126,
            "count" : 2052,
            "type" : "VEC2"
        },
        {
            "bufferView" : 3,
            "componentType" : 5123,
            "count" : 11904,
            "type" : "SCALAR"
        }
    ],
    "bufferViews" : [
        {
            "buffer" : 0,
            "byteLength" : 24624,
            "byteOffset" : 0
        },
        {
            "buffer" : 0,
            "byteLength" : 24624,
            "byteOffset" : 24624
        },
        {
            "buffer" : 0,
            "byteLength" : 16416,
            "byteOffset" : 49248
        },
        {
            "buffer" : 0,
            "byteLength" : 23808,
            "byteOffset" : 65664
        },
        {
            "buffer" : 0,
            "byteLength" : 1464598,
            "byteOffset" : 89472
        }
    ],
    "buffers" : [
        {
            "byteLength" : 1554072,
            "uri" : "data:application/octet-stream;base64,"
        }
    ]
}
