{
    "asset" : {
        "generator" : "Khronos glTF Blender I/O v1.2.75",
        "version" : "2.0"
    },
    "scene" : 0,
    "scenes" : [
        {
            "name" : "Scene",
            "nodes" : [
                0
            ]
        }
    ],
    "nodes" : [
        {
            "mesh" : 0,
            "name" : "object_0",
            "rotation" : [
                0.7071068286895752,
                0,
                0,
                0.7071067094802856
            ],
            "scale" : [
                1.7322479486465454,
                1.7322479486465454,
                1.7322479486465454
            ]
        }
    ],
    "materials" : [
        {
            "doubleSided" : true,
            "emissiveFactor" : [
                0,
                0,
                0
            ],
            "name" : "object_0.001",
            "pbrMetallicRoughness" : {
                "baseColorTexture" : {
                    "index" : 0,
                    "texCoord" : 0
                },
                "metallicFactor" : 0,
                "roughnessFactor" : 0.8953887820243835
            }
        }
    ],
    "meshes" : [
        {
            "name" : "object_0",
            "primitives" : [
                {
                    "attributes" : {
                        "POSITION" : 0,
                        "NORMAL" : 1,
                        "TEXCOORD_0" : 2
                    },
                    "indices" : 3,
                    "material" : 0
                }
            ]
        }
    ],
    "textures" : [
        {
            "source" : 0
        }
    ],
    "images" : [
        {
            "bufferView" : 4,
            "mimeType" : "image/png",
            "name" : "RGB_58e7c863469548a9a142459fa4cfa750_mangalyaan_color"
        }
    ],
    "accessors" : [
        {
            "bufferView" : 0,
            "componentType" : 5126,
            "count" : 4473,
            "max" : [
                0.889660656452179,
                0.7374199628829956,
                0.43143001198768616
            ],
            "min" : [
                -0.8890799880027771,
                -1.126829981803894,
                -0.6374990940093994
            ],
            "type" : "VEC3"
        },
        {
            "bufferView" : 1,
            "componentType" : 5126,
            "count" : 4473,
            "type" : "VEC3"
        },
        {
            "bufferView" : 2,
            "componentType" : 5126,
            "count" : 4473,
            "type" : "VEC2"
        },
        {
            "bufferView" : 3,
            "componentType" : 5123,
            "count" : 10452,
            "type" : "SCALAR"
        }
    ],
    "bufferViews" : [
        {
            "buffer" : 0,
            "byteLength" : 53676,
            "byteOffset" : 0
        },
        {
            "buffer" : 0,
            "byteLength" : 53676,
            "byteOffset" : 53676
        },
        {
            "buffer" : 0,
            "byteLength" : 35784,
            "byteOffset" : 107352
        },
        {
            "buffer" : 0,
            "byteLength" : 20904,
            "byteOffset" : 143136
        },
        {
            "buffer" : 0,
            "byteLength" : 173512,
            "byteOffset" : 164040
        }
    ],
    "buffers" : [
        {
            "byteLength" : 337552,
            "uri" : "data:application/octet-stream;base64,"
        }
    ]
}
